<svg xmlns="http://www.w3.org/2000/svg" height="48" viewBox="0 -960 960 960" width="48"><path d="M356.459-124.001q-64.618 0-108.538-44.251t-43.92-108.287v-345.769q-35-14-57.5-41.967t-22.5-62.569q0-46.791 31.438-78.473 31.439-31.682 77.208-31.682 46.385 0 78.061 31.932 31.676 31.932 31.676 77.89 0 34.732-23 62.8-23 28.069-57 42.069v345.769q0 39.225 27.442 66.69 27.442 27.465 66.787 27.465 39.486 0 67.091-27.465 27.604-27.465 27.604-66.69v-407.307q0-64.154 43.92-108.653 43.921-44.5 108.538-44.5 64.234 0 108.733 44.5 44.5 44.499 44.5 108.653v345.154q34 15 57 42.967t23 62.569q0 46.176-31.881 77.665-31.88 31.49-77.765 31.49-45.77 0-77.254-31.49-31.483-31.489-31.483-77.677 0-34.586 22.5-63.055t57.5-42.469v-345.154q0-38.455-28.18-66.612-28.179-28.158-66.665-28.158-38.87 0-66.475 28.158-27.604 28.157-27.604 66.612v407.307q0 64.036-44.5 108.287-44.5 44.251-108.733 44.251Z" fill="#ed1d24"/></svg>